<svg width="26" height="26" viewBox="0 0 26 26" fill="none" xmlns="http://www.w3.org/2000/svg">
<g id="instagram (3) 1" clip-path="url(#clip0_208_1345)">
<path id="Vector" d="M25.888 7.44199C25.8295 6.11364 25.6147 5.20042 25.3069 4.40909C24.9895 3.56912 24.5011 2.8171 23.8613 2.19194C23.2361 1.55705 22.4791 1.06371 21.6489 0.751227C20.853 0.443512 19.9445 0.228703 18.6162 0.170135C17.2779 0.106608 16.8531 0.0919189 13.4589 0.0919189C10.0646 0.0919189 9.63979 0.106608 8.30649 0.165175C6.97814 0.223742 6.06491 0.438743 5.27378 0.746267C4.43362 1.06371 3.6816 1.55209 3.05644 2.19194C2.42155 2.8171 1.9284 3.57408 1.61573 4.40432C1.30801 5.20042 1.0932 6.10868 1.03464 7.43703C0.97111 8.77529 0.956421 9.20014 0.956421 12.5944C0.956421 15.9886 0.97111 16.4134 1.02968 17.7467C1.08824 19.0751 1.30324 19.9883 1.61096 20.7796C1.9284 21.6196 2.42155 22.3716 3.05644 22.9968C3.6816 23.6317 4.43858 24.125 5.26882 24.4375C6.06491 24.7452 6.97318 24.96 8.30172 25.0186C9.63483 25.0773 10.0599 25.0918 13.4541 25.0918C16.8483 25.0918 17.2732 25.0773 18.6065 25.0186C19.9348 24.96 20.848 24.7452 21.6392 24.4375C23.3193 23.7879 24.6476 22.4596 25.2972 20.7796C25.6047 19.9835 25.8197 19.0751 25.8783 17.7467C25.9369 16.4134 25.9516 15.9886 25.9516 12.5944C25.9516 9.20014 25.9466 8.77529 25.888 7.44199ZM23.6367 17.6491C23.5829 18.87 23.3779 19.5293 23.2069 19.9688C22.7868 21.058 21.9225 21.9224 20.8333 22.3424C20.3938 22.5134 19.7297 22.7184 18.5136 22.7721C17.1949 22.8308 16.7995 22.8453 13.4638 22.8453C10.1282 22.8453 9.72774 22.8308 8.41389 22.7721C7.19295 22.7184 6.53364 22.5134 6.0941 22.3424C5.55212 22.1421 5.05878 21.8247 4.65835 21.4096C4.24323 21.0042 3.92579 20.5158 3.72548 19.9738C3.55454 19.5343 3.34947 18.87 3.29586 17.654C3.2371 16.3354 3.2226 15.9397 3.2226 12.6041C3.2226 9.26844 3.2371 8.86801 3.29586 7.55435C3.34947 6.33341 3.55454 5.6741 3.72548 5.23456C3.92579 4.69239 4.24323 4.19924 4.66331 3.79862C5.06851 3.3835 5.55689 3.06606 6.09906 2.86594C6.5386 2.695 7.20287 2.48992 8.41885 2.43613C9.73747 2.37756 10.1331 2.36287 13.4686 2.36287C16.8092 2.36287 17.2047 2.37756 18.5185 2.43613C19.7395 2.48992 20.3988 2.695 20.8383 2.86594C21.3803 3.06606 21.8736 3.3835 22.274 3.79862C22.6892 4.20401 23.0066 4.69239 23.2069 5.23456C23.3779 5.6741 23.5829 6.33818 23.6367 7.55435C23.6953 8.87297 23.71 9.26844 23.71 12.6041C23.71 15.9397 23.6953 16.3304 23.6367 17.6491Z" fill="black"/>
<path id="Vector_2" d="M13.4588 6.17206C9.91327 6.17206 7.03662 9.04852 7.03662 12.5942C7.03662 16.1399 9.91327 19.0164 13.4588 19.0164C17.0045 19.0164 19.8809 16.1399 19.8809 12.5942C19.8809 9.04852 17.0045 6.17206 13.4588 6.17206ZM13.4588 16.7601C11.1586 16.7601 9.29288 14.8945 9.29288 12.5942C9.29288 10.2939 11.1586 8.42832 13.4588 8.42832C15.7591 8.42832 17.6247 10.2939 17.6247 12.5942C17.6247 14.8945 15.7591 16.7601 13.4588 16.7601Z" fill="black"/>
<path id="Vector_3" d="M21.6347 5.91835C21.6347 6.7463 20.9634 7.41763 20.1353 7.41763C19.3073 7.41763 18.636 6.7463 18.636 5.91835C18.636 5.0902 19.3073 4.41907 20.1353 4.41907C20.9634 4.41907 21.6347 5.0902 21.6347 5.91835Z" fill="black"/>
</g>
<defs>
<clipPath id="clip0_208_1345">
<rect width="25" height="25" fill="white" transform="translate(0.912354 0.0919189)"/>
</clipPath>
</defs>
</svg>
