<svg width="26" height="26" viewBox="0 0 26 26" fill="none" xmlns="http://www.w3.org/2000/svg">
<g id="linkedin (2) 1" clip-path="url(#clip0_208_1351)">
<path id="Vector" d="M4.52417 1.36145C2.80555 1.36145 1.68188 2.48998 1.68188 3.97328C1.68188 5.42382 2.77208 6.58453 4.45822 6.58453H4.49084C6.24307 6.58453 7.33355 5.42382 7.33355 3.97328C7.30079 2.48998 6.24307 1.36145 4.52417 1.36145Z" fill="black"/>
<path id="Vector_2" d="M1.97876 8.64856H7.003V23.7642H1.97876V8.64856Z" fill="black"/>
<path id="Vector_3" d="M19.3347 8.29309C16.6243 8.29309 14.8069 10.84 14.8069 10.84V8.64786H9.78247V23.7635H14.8066V15.3223C14.8066 14.8704 14.8393 14.4193 14.9721 14.0961C15.3353 13.1937 16.1618 12.2589 17.5499 12.2589C19.3679 12.2589 20.095 13.6451 20.095 15.6771V23.7635H25.1188V15.0965C25.1188 10.4536 22.6401 8.29309 19.3347 8.29309Z" fill="black"/>
</g>
<defs>
<clipPath id="clip0_208_1351">
<rect width="25" height="25" fill="white" transform="translate(0.912354 0.0919189)"/>
</clipPath>
</defs>
</svg>
