<svg width="26" height="26" viewBox="0 0 26 26" fill="none" xmlns="http://www.w3.org/2000/svg">
<g id="whatsapp (2) 1" clip-path="url(#clip0_208_1349)">
<path id="Vector" fill-rule="evenodd" clip-rule="evenodd" d="M21.7025 4.2675C19.5098 2.07223 16.5937 0.862738 13.4871 0.86145C7.08555 0.86145 1.87563 6.07123 1.87305 12.4745C1.87219 14.5214 2.40692 16.5195 3.4233 18.2808L1.77563 24.2989L7.93241 22.6839C9.62886 23.6093 11.5387 24.097 13.4824 24.0975H13.4872C19.8881 24.0975 25.0986 18.8873 25.101 12.4838C25.1023 9.38043 23.8953 6.46262 21.7025 4.2675ZM13.4871 22.1362H13.4831C11.751 22.1354 10.0523 21.67 8.56999 20.7906L8.21766 20.5813L4.56413 21.5398L5.53931 17.9777L5.30971 17.6124C4.3434 16.0755 3.83314 14.2991 3.834 12.4752C3.836 7.15298 8.16644 2.82297 13.491 2.82297C16.0693 2.82383 18.493 3.82919 20.3155 5.65381C22.138 7.47842 23.141 9.90371 23.1402 12.4831C23.1379 17.8057 18.8077 22.1362 13.4871 22.1362ZM18.782 14.9065C18.4919 14.7612 17.0651 14.0593 16.799 13.9624C16.5332 13.8655 16.3395 13.8173 16.1463 14.1077C15.9527 14.3981 15.3967 15.0518 15.2273 15.2454C15.0579 15.4391 14.8888 15.4634 14.5986 15.3181C14.3083 15.1729 13.3734 14.8663 12.2649 13.8777C11.4023 13.1082 10.8199 12.1579 10.6505 11.8675C10.4814 11.5768 10.6491 11.4349 10.7778 11.2753C11.092 10.8852 11.4066 10.4762 11.5033 10.2827C11.6001 10.089 11.5516 9.91945 11.4789 9.77425C11.4066 9.62905 10.8262 8.20069 10.5844 7.61947C10.3487 7.05385 10.1097 7.13024 9.93141 7.12137C9.76232 7.11293 9.56878 7.11121 9.37523 7.11121C9.18182 7.11121 8.8674 7.18374 8.60132 7.47442C8.33539 7.76495 7.5858 8.46691 7.5858 9.89527C7.5858 11.3236 8.62564 12.7035 8.77069 12.8972C8.91575 13.0909 10.817 16.022 13.728 17.2789C14.4204 17.5781 14.9608 17.7565 15.3824 17.8903C16.0776 18.1111 16.71 18.0799 17.2101 18.0053C17.7678 17.9219 18.9269 17.3032 19.1689 16.6254C19.4107 15.9475 19.4107 15.3665 19.338 15.2454C19.2656 15.1244 19.0721 15.0518 18.782 14.9065Z" fill="black"/>
</g>
<defs>
<clipPath id="clip0_208_1349">
<rect width="25" height="25" fill="white" transform="translate(0.912354 0.0919189)"/>
</clipPath>
</defs>
</svg>
